ply
format ascii 1.0
comment Created by Blender 2.82 (sub 7) - www.blender.org, source file: ''
element vertex 8
property float x
property float y
property float z
property uchar red
property uchar green
property uchar blue
property uchar alpha
element face 6
property list uchar uint vertex_indices
end_header
-1.000000 -1.000000 -1.000000 255 0 0 255
-1.000000 -1.000000 1.000000 255 0 0 255
-1.000000 1.000000 1.000000 255 0 0 255
-1.000000 1.000000 -1.000000 255 10 10 255
1.000000 1.000000 1.000000 255 0 0 255
1.000000 1.000000 -1.000000 255 0 0 255
1.000000 -1.000000 1.000000 255 0 0 255
1.000000 -1.000000 -1.000000 255 0 0 255
4 0 1 2 3
4 3 2 4 5
4 5 4 6 7
4 7 6 1 0
4 3 5 7 0
4 4 2 1 6
