ply
format ascii 1.0
comment Created by Blender 2.82 (sub 7) - www.blender.org, source file: ''
element vertex 12
property float x
property float y
property float z
property uchar red
property uchar green
property uchar blue
property uchar alpha
element face 20
property list uchar uint vertex_indices
end_header
0.000000 0.000000 -1.000000 255 13 13 255
0.723600 -0.525720 -0.447215 255 12 12 255
-0.276385 -0.850640 -0.447215 255 24 24 255
0.723600 0.525720 -0.447215 255 11 11 255
-0.894425 0.000000 -0.447215 255 0 0 255
-0.276385 0.850640 -0.447215 255 6 6 255
0.894425 0.000000 0.447215 255 10 10 255
0.276385 -0.850640 0.447215 255 15 15 255
-0.723600 -0.525720 0.447215 255 0 0 255
-0.723600 0.525720 0.447215 255 19 19 255
0.276385 0.850640 0.447215 255 53 53 255
0.000000 0.000000 1.000000 255 0 0 255
3 0 1 2
3 1 0 3
3 0 2 4
3 0 4 5
3 0 5 3
3 1 3 6
3 2 1 7
3 4 2 8
3 5 4 9
3 3 5 10
3 1 6 7
3 2 7 8
3 4 8 9
3 5 9 10
3 3 10 6
3 7 6 11
3 8 7 11
3 9 8 11
3 10 9 11
3 6 10 11
