ply
format ascii 1.0
comment Created by Blender 2.82 (sub 7) - www.blender.org, source file: ''
element vertex 114
property float x
property float y
property float z
property uchar red
property uchar green
property uchar blue
property uchar alpha
element face 128
property list uchar uint vertex_indices
end_header
0.000000 0.923880 -0.382684 255 0 0 255
0.000001 1.000000 -0.000000 255 0 0 255
0.382683 0.923880 -0.000000 255 0 0 255
0.353553 0.853553 -0.382684 255 0 0 255
0.000000 0.923880 0.382683 255 0 0 255
0.000000 0.707107 0.707107 255 0 0 255
0.270598 0.653281 0.707107 255 0 0 255
0.353553 0.853553 0.382683 255 0 0 255
0.000000 0.382683 0.923880 255 0 0 255
-0.000000 0.000000 1.000000 255 0 0 255
0.146447 0.353553 0.923880 255 0 0 255
0.000000 0.000000 -1.000000 255 0 0 255
0.000000 0.382683 -0.923880 255 0 0 255
0.146447 0.353553 -0.923880 255 0 0 255
0.000000 0.707106 -0.707107 255 0 0 255
0.270598 0.653281 -0.707107 255 0 0 255
0.270598 0.270598 -0.923880 255 0 0 255
0.653281 0.653281 -0.382684 255 0 0 255
0.500000 0.500000 -0.707107 255 0 0 255
0.653281 0.653281 0.382683 255 0 0 255
0.707107 0.707107 -0.000000 255 0 0 255
0.270598 0.270598 0.923880 255 0 0 255
0.500000 0.500000 0.707107 255 0 0 255
0.353553 0.146447 0.923880 255 0 0 255
0.653281 0.270598 0.707107 255 0 0 255
0.653281 0.270598 -0.707107 255 0 0 255
0.353553 0.146447 -0.923880 255 0 0 255
0.923879 0.382683 -0.000000 255 0 0 255
0.853553 0.353553 -0.382684 255 0 0 255
0.853553 0.353553 0.382683 255 0 0 255
0.707107 0.000000 -0.707107 255 0 0 255
0.382683 0.000000 -0.923880 255 0 0 255
1.000000 0.000000 -0.000000 255 0 0 255
0.923879 0.000000 -0.382684 255 0 0 255
0.707107 0.000000 0.707107 255 0 0 255
0.923879 0.000000 0.382683 255 0 0 255
0.382683 0.000000 0.923880 255 0 0 255
0.353553 -0.146446 0.923880 255 0 0 255
0.353553 -0.146446 -0.923880 255 0 0 255
0.853553 -0.353553 -0.382684 255 0 0 255
0.653281 -0.270598 -0.707107 255 0 0 255
0.853553 -0.353553 0.382683 255 0 0 255
0.923879 -0.382683 -0.000000 255 0 0 255
0.653281 -0.270598 0.707107 255 0 0 255
0.653281 -0.653281 -0.382684 255 0 0 255
0.500000 -0.500000 -0.707107 255 0 0 255
0.653281 -0.653281 0.382683 255 0 0 255
0.707106 -0.707107 -0.000000 255 0 0 255
0.270598 -0.270598 0.923880 255 0 0 255
0.500000 -0.500000 0.707107 255 0 0 255
0.270598 -0.270598 -0.923880 255 0 0 255
0.270598 -0.653281 -0.707107 255 0 0 255
0.146446 -0.353553 -0.923880 255 0 0 255
0.382683 -0.923879 -0.000000 255 0 0 255
0.353553 -0.853553 -0.382684 255 0 0 255
0.270598 -0.653281 0.707107 255 0 0 255
0.353553 -0.853553 0.382683 255 0 0 255
0.146446 -0.353553 0.923880 255 0 0 255
-0.000000 -1.000000 -0.000000 255 0 0 255
-0.000000 -0.923879 -0.382684 255 0 0 255
-0.000000 -0.707106 0.707107 255 0 0 255
-0.000000 -0.923879 0.382683 255 0 0 255
-0.000000 -0.382683 0.923880 255 0 0 255
-0.000000 -0.382683 -0.923880 255 0 0 255
-0.000000 -0.707106 -0.707107 255 0 0 255
-0.146447 -0.353553 -0.923880 255 0 0 255
-0.353554 -0.853553 -0.382684 255 0 0 255
-0.270598 -0.653281 -0.707107 255 0 0 255
-0.353554 -0.853553 0.382683 255 0 0 255
-0.382684 -0.923879 -0.000000 255 0 0 255
-0.146447 -0.353553 0.923880 255 0 0 255
-0.270598 -0.653281 0.707107 255 0 0 255
-0.653282 -0.653281 0.382683 255 0 0 255
-0.707107 -0.707106 -0.000000 255 0 0 255
-0.270598 -0.270598 0.923880 255 0 0 255
-0.500000 -0.499999 0.707107 255 0 0 255
-0.500000 -0.499999 -0.707107 255 0 0 255
-0.270598 -0.270598 -0.923880 255 0 0 255
-0.653282 -0.653281 -0.382684 255 0 0 255
-0.653281 -0.270597 -0.707107 255 0 0 255
-0.353553 -0.146446 -0.923880 255 0 0 255
-0.923879 -0.382683 -0.000000 255 0 0 255
-0.853553 -0.353553 -0.382684 255 0 0 255
-0.653281 -0.270597 0.707107 255 0 0 255
-0.853553 -0.353553 0.382683 255 0 0 255
-0.353553 -0.146446 0.923880 255 0 0 255
-0.707106 0.000000 0.707107 255 0 0 255
-0.923879 0.000001 0.382683 255 0 0 255
-0.382683 0.000000 0.923880 255 0 0 255
-0.382683 0.000000 -0.923880 255 0 0 255
-0.923879 0.000001 -0.382684 255 0 0 255
-0.707106 0.000000 -0.707107 255 0 0 255
-1.000000 0.000001 -0.000000 255 0 0 255
-0.353553 0.146447 -0.923880 255 0 0 255
-0.853553 0.353554 -0.382684 255 0 0 255
-0.653281 0.270598 -0.707107 255 0 0 255
-0.853553 0.353554 0.382683 255 0 0 255
-0.923879 0.382684 -0.000000 255 0 0 255
-0.353553 0.146447 0.923880 255 0 0 255
-0.653281 0.270598 0.707107 255 0 0 255
-0.270598 0.270598 0.923880 255 0 0 255
-0.499999 0.500000 0.707107 255 0 0 255
-0.499999 0.500000 -0.707107 255 0 0 255
-0.270598 0.270598 -0.923880 255 0 0 255
-0.707106 0.707107 -0.000000 255 0 0 255
-0.653281 0.653282 -0.382684 255 0 0 255
-0.653281 0.653282 0.382683 255 0 0 255
-0.270598 0.653281 -0.707107 255 0 0 255
-0.146446 0.353553 -0.923880 255 0 0 255
-0.382683 0.923880 -0.000000 255 0 0 255
-0.353553 0.853553 -0.382684 255 0 0 255
-0.270598 0.653281 0.707107 255 0 0 255
-0.353553 0.853553 0.382683 255 0 0 255
-0.146446 0.353553 0.923880 255 0 0 255
4 0 1 2 3
4 4 5 6 7
3 8 9 10
3 11 12 13
4 14 0 3 15
4 1 4 7 2
4 5 8 10 6
4 12 14 15 13
3 11 13 16
4 15 3 17 18
4 2 7 19 20
4 6 10 21 22
4 13 15 18 16
4 3 2 20 17
4 7 6 22 19
3 10 9 21
4 22 21 23 24
4 16 18 25 26
4 17 20 27 28
4 19 22 24 29
3 21 9 23
3 11 16 26
4 18 17 28 25
4 20 19 29 27
4 26 25 30 31
4 28 27 32 33
4 29 24 34 35
3 23 9 36
3 11 26 31
4 25 28 33 30
4 27 29 35 32
4 24 23 36 34
3 36 9 37
3 11 31 38
4 30 33 39 40
4 32 35 41 42
4 34 36 37 43
4 31 30 40 38
4 33 32 42 39
4 35 34 43 41
4 40 39 44 45
4 42 41 46 47
4 43 37 48 49
4 38 40 45 50
4 39 42 47 44
4 41 43 49 46
3 37 9 48
3 11 38 50
4 50 45 51 52
4 44 47 53 54
4 46 49 55 56
3 48 9 57
3 11 50 52
4 45 44 54 51
4 47 46 56 53
4 49 48 57 55
4 54 53 58 59
4 56 55 60 61
3 57 9 62
3 11 52 63
4 51 54 59 64
4 53 56 61 58
4 55 57 62 60
4 52 51 64 63
3 11 63 65
4 64 59 66 67
4 58 61 68 69
4 60 62 70 71
4 63 64 67 65
4 59 58 69 66
4 61 60 71 68
3 62 9 70
4 69 68 72 73
4 71 70 74 75
4 65 67 76 77
4 66 69 73 78
4 68 71 75 72
3 70 9 74
3 11 65 77
4 67 66 78 76
4 77 76 79 80
4 78 73 81 82
4 72 75 83 84
3 74 9 85
3 11 77 80
4 76 78 82 79
4 73 72 84 81
4 75 74 85 83
4 84 83 86 87
3 85 9 88
3 11 80 89
4 79 82 90 91
4 81 84 87 92
4 83 85 88 86
4 80 79 91 89
4 82 81 92 90
3 11 89 93
4 91 90 94 95
4 92 87 96 97
4 86 88 98 99
4 89 91 95 93
4 90 92 97 94
4 87 86 99 96
3 88 9 98
4 99 98 100 101
4 93 95 102 103
4 94 97 104 105
4 96 99 101 106
3 98 9 100
3 11 93 103
4 95 94 105 102
4 97 96 106 104
4 103 102 107 108
4 105 104 109 110
4 106 101 111 112
3 100 9 113
3 11 103 108
4 102 105 110 107
4 104 106 112 109
4 101 100 113 111
3 113 9 8
3 11 108 12
4 107 110 0 14
4 109 112 4 1
4 111 113 8 5
4 108 107 14 12
4 110 109 1 0
4 112 111 5 4
