ply
format ascii 1.0
comment Created by Blender 2.82 (sub 7) - www.blender.org, source file: ''
element vertex 121
property float x
property float y
property float z
property uchar red
property uchar green
property uchar blue
property uchar alpha
element face 128
property list uchar uint vertex_indices
end_header
0.000000 0.000000 -1.000000 255 0 56 255
0.000000 0.382683 -0.923880 255 0 56 255
0.146447 0.353553 -0.923880 255 0 56 255
0.000000 0.707106 -0.707107 255 0 56 255
0.000000 0.923880 -0.382684 255 0 56 255
0.353553 0.853553 -0.382684 255 0 56 255
0.270598 0.653281 -0.707107 255 0 56 255
0.000001 1.000000 -0.000000 255 0 56 255
0.000000 0.923880 0.382683 255 0 56 255
0.353553 0.853553 0.382683 255 0 56 255
0.382683 0.923880 -0.000000 255 0 56 255
0.000000 0.707107 0.707107 255 0 56 255
0.000000 0.382683 0.923880 255 0 56 255
0.146447 0.353553 0.923880 255 0 56 255
0.270598 0.653281 0.707107 255 0 56 255
-0.000000 0.000000 1.000000 255 0 56 255
0.500000 0.500000 -0.707107 255 0 56 255
0.270598 0.270598 -0.923880 255 0 56 255
0.707107 0.707107 -0.000000 255 0 56 255
0.653281 0.653281 -0.382684 255 0 56 255
0.500000 0.500000 0.707107 255 0 56 255
0.653281 0.653281 0.382683 255 0 56 255
0.270598 0.270598 0.923880 255 0 56 255
0.923879 0.382683 -0.000000 255 0 56 255
0.853553 0.353553 -0.382684 255 0 56 255
0.653281 0.270598 0.707107 255 0 56 255
0.853553 0.353553 0.382683 255 0 56 255
0.353553 0.146447 0.923880 255 0 56 255
0.353553 0.146447 -0.923880 255 0 56 255
0.653281 0.270598 -0.707107 255 0 56 255
0.382683 0.000000 -0.923880 255 0 56 255
0.923879 0.000000 -0.382684 255 0 56 255
0.707107 0.000000 -0.707107 255 0 56 255
0.923879 0.000000 0.382683 255 0 56 255
1.000000 0.000000 -0.000000 255 0 56 255
0.382683 0.000000 0.923880 255 0 56 255
0.707107 0.000000 0.707107 255 0 56 255
0.853553 -0.353553 0.382683 255 0 56 255
0.923879 -0.382683 -0.000000 255 0 56 255
0.353553 -0.146446 0.923880 255 0 56 255
0.653281 -0.270598 0.707107 255 0 56 255
0.653281 -0.270598 -0.707107 255 0 56 255
0.353553 -0.146446 -0.923880 255 0 56 255
0.853553 -0.353553 -0.382684 255 0 56 255
0.500000 -0.500000 -0.707107 255 0 56 255
0.270598 -0.270598 -0.923880 255 0 56 255
0.707106 -0.707107 -0.000000 255 0 56 255
0.653281 -0.653281 -0.382684 255 0 56 255
0.500000 -0.500000 0.707107 255 0 56 255
0.653281 -0.653281 0.382683 255 0 56 255
0.270598 -0.270598 0.923880 255 0 56 255
0.270598 -0.653281 0.707107 255 0 56 255
0.353553 -0.853553 0.382683 255 0 56 255
0.146446 -0.353553 0.923880 255 0 56 255
0.146446 -0.353553 -0.923880 255 0 56 255
0.353553 -0.853553 -0.382684 255 0 56 255
0.270598 -0.653281 -0.707107 255 0 56 255
0.382683 -0.923879 -0.000000 255 0 56 255
-0.000000 -0.382683 -0.923880 255 1 56 255
-0.000000 -0.923879 -0.382684 255 0 56 255
-0.000000 -0.707106 -0.707107 255 0 56 255
-0.000000 -0.923879 0.382683 255 0 56 255
-0.000000 -1.000000 -0.000000 255 0 56 255
-0.000000 -0.382683 0.923880 255 0 56 255
-0.000000 -0.707106 0.707107 255 0 56 255
-0.146447 -0.353553 0.923880 255 0 56 255
-0.270598 -0.653281 0.707107 255 0 56 255
-0.270598 -0.653281 -0.707107 255 1 56 255
-0.146447 -0.353553 -0.923880 255 3 56 255
-0.382684 -0.923879 -0.000000 255 0 56 255
-0.353554 -0.853553 -0.382684 255 0 56 255
-0.353554 -0.853553 0.382683 255 0 56 255
-0.500000 -0.499999 -0.707107 255 1 56 255
-0.270598 -0.270598 -0.923880 255 3 56 255
-0.707107 -0.707106 -0.000000 255 0 56 255
-0.653282 -0.653281 -0.382684 255 0 56 255
-0.500000 -0.499999 0.707107 255 0 56 255
-0.653282 -0.653281 0.382683 255 0 56 255
-0.270598 -0.270598 0.923880 255 0 56 255
-0.353553 -0.146446 0.923880 255 0 56 255
-0.353553 -0.146446 -0.923880 255 4 56 255
-0.853553 -0.353553 -0.382684 255 0 56 255
-0.653281 -0.270597 -0.707107 255 1 56 255
-0.853553 -0.353553 0.382683 255 0 56 255
-0.923879 -0.382683 -0.000000 255 0 56 255
-0.653281 -0.270597 0.707107 255 0 56 255
-0.919826 -0.045678 -0.377569 255 2 56 255
-0.703053 -0.045678 -0.701993 255 4 56 255
-0.919826 -0.045678 0.387797 255 0 56 255
-0.995946 -0.045678 0.005114 255 0 56 255
-0.378630 -0.045679 0.928994 255 0 56 255
-0.703053 -0.045678 0.712221 255 0 56 255
-0.378630 -0.045679 -0.918765 255 4 56 255
-0.382683 0.049152 -0.923880 255 4 56 255
-0.707106 0.049152 -0.707107 255 8 57 255
-0.653281 0.270598 -0.707107 255 5 56 255
-0.353553 0.146447 -0.923880 255 3 56 255
-0.923879 0.049152 -0.382684 255 1 56 255
-1.000000 0.049152 -0.000000 255 0 56 255
-0.923879 0.382684 -0.000000 255 0 56 255
-0.853553 0.353554 -0.382684 255 0 56 255
-0.923879 0.049152 0.382683 255 0 56 255
-0.707106 0.049152 0.707107 255 0 56 255
-0.653281 0.270598 0.707107 255 0 56 255
-0.853553 0.353554 0.382683 255 0 56 255
-0.382683 0.049152 0.923880 255 0 56 255
-0.353553 0.146447 0.923880 255 0 56 255
-0.707106 0.707107 -0.000000 255 0 56 255
-0.653281 0.653282 -0.382684 255 0 56 255
-0.499999 0.500000 0.707107 255 0 56 255
-0.653281 0.653282 0.382683 255 0 56 255
-0.270598 0.270598 0.923880 255 0 56 255
-0.270598 0.270598 -0.923880 255 1 56 255
-0.499999 0.500000 -0.707107 255 1 56 255
-0.146446 0.353553 -0.923880 255 0 56 255
-0.353553 0.853553 -0.382684 255 0 56 255
-0.270598 0.653281 -0.707107 255 0 56 255
-0.353553 0.853553 0.382683 255 0 56 255
-0.382683 0.923880 -0.000000 255 0 56 255
-0.146446 0.353553 0.923880 255 0 56 255
-0.270598 0.653281 0.707107 255 0 56 255
3 0 1 2
4 3 4 5 6
4 7 8 9 10
4 11 12 13 14
4 1 3 6 2
4 4 7 10 5
4 8 11 14 9
3 12 15 13
4 2 6 16 17
4 5 10 18 19
4 9 14 20 21
3 13 15 22
3 0 2 17
4 6 5 19 16
4 10 9 21 18
4 14 13 22 20
4 19 18 23 24
4 21 20 25 26
3 22 15 27
3 0 17 28
4 16 19 24 29
4 18 21 26 23
4 20 22 27 25
4 17 16 29 28
3 0 28 30
4 29 24 31 32
4 23 26 33 34
4 25 27 35 36
4 28 29 32 30
4 24 23 34 31
4 26 25 36 33
3 27 15 35
4 34 33 37 38
4 36 35 39 40
4 30 32 41 42
4 31 34 38 43
4 33 36 40 37
3 35 15 39
3 0 30 42
4 32 31 43 41
4 42 41 44 45
4 43 38 46 47
4 37 40 48 49
3 39 15 50
3 0 42 45
4 41 43 47 44
4 38 37 49 46
4 40 39 50 48
4 49 48 51 52
3 50 15 53
3 0 45 54
4 44 47 55 56
4 46 49 52 57
4 48 50 53 51
4 45 44 56 54
4 47 46 57 55
3 0 54 58
4 56 55 59 60
4 57 52 61 62
4 51 53 63 64
4 54 56 60 58
4 55 57 62 59
4 52 51 64 61
3 53 15 63
4 64 63 65 66
4 58 60 67 68
4 59 62 69 70
4 61 64 66 71
3 63 15 65
3 0 58 68
4 60 59 70 67
4 62 61 71 69
4 68 67 72 73
4 70 69 74 75
4 71 66 76 77
3 65 15 78
3 0 68 73
4 67 70 75 72
4 69 71 77 74
4 66 65 78 76
3 78 15 79
3 0 73 80
4 72 75 81 82
4 74 77 83 84
4 76 78 79 85
4 73 72 82 80
4 75 74 84 81
4 77 76 85 83
4 82 81 86 87
4 84 83 88 89
4 85 79 90 91
4 80 82 87 92
4 81 84 89 86
4 83 85 91 88
3 79 15 90
3 0 80 92
4 93 94 95 96
4 97 98 99 100
4 101 102 103 104
3 105 15 106
3 0 93 96
4 94 97 100 95
4 98 101 104 99
4 102 105 106 103
4 100 99 107 108
4 104 103 109 110
3 106 15 111
3 0 96 112
4 95 100 108 113
4 99 104 110 107
4 103 106 111 109
4 96 95 113 112
3 0 112 114
4 113 108 115 116
4 107 110 117 118
4 109 111 119 120
4 112 113 116 114
4 108 107 118 115
4 110 109 120 117
3 111 15 119
4 118 117 8 7
4 120 119 12 11
4 114 116 3 1
4 115 118 7 4
4 117 120 11 8
3 119 15 12
3 0 114 1
4 116 115 4 3
